<?xml version="1.0" encoding="UTF-8"?>
<svg id="Layer_1" data-name="Layer 1" xmlns="http://www.w3.org/2000/svg" viewBox="0 0 40 40">
  <defs>
    <style>
      .cls-1 {
        fill: #00e35a;
        stroke-width: 0px;
      }
    </style>
  </defs>
  <path class="cls-1" d="M31.02,0H8.98C4.02,0,0,4.02,0,8.98v22.03C0,35.98,4.02,40,8.98,40h22.03c4.96,0,8.98-4.02,8.98-8.98V8.98C40,4.02,35.98,0,31.02,0ZM28.65,35.7H11.35c-3.9,0-7.05-3.16-7.05-7.05V11.35c0-3.9,3.16-7.05,7.05-7.05h17.3c1.59,0,3.05.53,4.23,1.42l-14.67,14.6-5.4-5.42-4.34,4.32,5.4,5.42,4.32,4.34,4.34-4.32,13.17-13.11v17.1c0,3.9-3.16,7.05-7.05,7.05Z"/>
</svg>