<?xml version="1.0" encoding="UTF-8"?>
<svg id="Layer_1" data-name="Layer 1" xmlns="http://www.w3.org/2000/svg" viewBox="0 0 40 40">
  <defs>
    <style>
      .cls-1 {
        fill: red;
        stroke-width: 0px;
      }
    </style>
  </defs>
  <path class="cls-1" d="M31.02,0H8.98C4.02,0,0,4.02,0,8.98v22.03C0,35.98,4.02,40,8.98,40h22.03c4.96,0,8.98-4.02,8.98-8.98V8.98C40,4.02,35.98,0,31.02,0ZM35.7,11.35v17.3c0,.48-.05.94-.14,1.4l-10.04-10.04,10.04-10.04c.09.45.14.92.14,1.4ZM28.65,4.3c.48,0,.94.05,1.4.14l-10.04,10.04L9.96,4.44c.45-.09.92-.14,1.4-.14h17.3ZM4.44,30.04c-.09-.45-.14-.92-.14-1.4V11.35c0-.48.05-.94.14-1.4l10.04,10.04-10.04,10.04ZM11.35,35.7c-.48,0-.94-.05-1.4-.14l10.04-10.04,10.04,10.04c-.45.09-.92.14-1.4.14H11.35Z"/>
</svg>