<?xml version="1.0" encoding="UTF-8"?>
<svg id="Layer_1" data-name="Layer 1" xmlns="http://www.w3.org/2000/svg" viewBox="0 0 40 40">
  <defs>
    <style>
      .cls-1 {
        fill: red;
      }

      .cls-1, .cls-2 {
        stroke-width: 0px;
      }

      .cls-2 {
        fill: #fff;
      }
    </style>
  </defs>
  <polygon class="cls-1" points="36.9 8.62 31.38 3.1 20 14.48 8.62 3.1 3.1 8.62 14.48 20 3.1 31.38 8.62 36.9 20 25.52 31.38 36.9 36.9 31.38 25.52 20 36.9 8.62"/>
  <path class="cls-2" d="M31.02,0H8.98C4.02,0,0,4.02,0,8.98v22.03C0,35.98,4.02,40,8.98,40h22.03c4.96,0,8.98-4.02,8.98-8.98V8.98C40,4.02,35.98,0,31.02,0ZM35.7,28.65c0,3.9-3.16,7.05-7.05,7.05H11.35c-3.9,0-7.05-3.16-7.05-7.05V11.35c0-3.9,3.16-7.05,7.05-7.05h17.3c3.9,0,7.05,3.16,7.05,7.05v17.3Z"/>
</svg>