<?xml version="1.0" encoding="UTF-8"?>
<svg id="Layer_1" data-name="Layer 1" xmlns="http://www.w3.org/2000/svg" viewBox="0 0 40 40">
  <defs>
    <style>
      .cls-1 {
        fill: #fff;
        stroke-width: 0px;
      }
    </style>
  </defs>
  <path class="cls-1" d="M31.02,0H8.98C4.02,0,0,4.02,0,8.98v22.03c0,4.96,4.02,8.98,8.98,8.98h22.03c4.96,0,8.98-4.02,8.98-8.98V8.98c0-4.96-4.02-8.98-8.98-8.98ZM35.7,28.65c0,3.9-3.16,7.05-7.05,7.05H11.35c-3.9,0-7.05-3.16-7.05-7.05V11.35c0-3.9,3.16-7.05,7.05-7.05h17.3c3.9,0,7.05,3.16,7.05,7.05v17.3Z"/>
</svg>