<?xml version="1.0" encoding="UTF-8"?>
<svg id="Layer_1" data-name="Layer 1" xmlns="http://www.w3.org/2000/svg" viewBox="0 0 692.28 133.57">
  <defs>
    <style>
      .cls-1 {
        fill: #00e35a;
      }

      .cls-1, .cls-2, .cls-3 {
        stroke-width: 0px;
      }

      .cls-2 {
        fill: #fff;
      }

      .cls-3 {
        fill: #1c2e4d;
      }
    </style>
  </defs>
  <polygon class="cls-1" points="98.59 27.46 48.98 76.85 31.34 59.13 17.17 73.24 34.81 90.96 48.92 105.13 63.09 91.02 112.7 41.64 98.59 27.46"/>
  <polygon class="cls-3" points="52.61 27.2 102 76.81 119.72 59.17 133.83 73.35 116.11 90.99 101.93 105.1 87.82 90.92 38.44 41.31 52.61 27.2"/>
  <path class="cls-2" d="M369.24,108.16v-56.65h-10.03v37.65h-4.69c-1.87,0-2.77-.49-3.54-1.46-.77-.97-1.15-2.45-1.15-4.42v-31.77h-10.03v37.79c0,2.42,1.18,5.31,2.34,6.59,1.32,1.45,3.98,3.81,10.34,3.62h6.74s0,.65,0,.65v9.02c-.06,1.49-.55,2.66-1.47,3.49-.99.88-2.39,1.32-4.22,1.32h-4.93v9.62h5.52c4.83,0,8.56-1.29,11.19-3.88,2.63-2.58,4-6.2,3.92-10.85,0-.14,0-.4,0-.6v-.13h.02Z"/>
  <path class="cls-2" d="M166.17,79.23l7.7-46.31h7.57l7.7,46.31,4.56-46.31h10.07l-8.8,66.96h-10.17l-6.88-39.89-7.38,39.89h-10.17l-8.84-66.96h10.07l4.56,46.31Z"/>
  <path class="cls-2" d="M326.95,32.91v52.83c0,1.22.28,2.15.84,2.8.56.65,1.36.98,2.39.98h2.01v10.35h-3.92c-3.59,0-6.37-1.09-8.36-3.28-1.99-2.19-2.99-5.27-2.99-9.25v-54.43h10.03Z"/>
  <path class="cls-2" d="M418.84,99.88c-3.28,0-6.09-.66-8.43-1.98-2.34-1.32-4.13-3.25-5.38-5.79-1.25-2.54-1.87-5.58-1.87-9.14v-33.78c0-3.62.62-6.68,1.87-9.19,1.25-2.51,3.04-4.43,5.38-5.77,2.34-1.34,5.15-2.01,8.43-2.01s6.18.67,8.5,2.01c2.32,1.34,4.1,3.27,5.33,5.79,1.23,2.52,1.85,5.58,1.85,9.16v4.06h-10.12v-4.06c0-1.49-.21-2.75-.64-3.78-.43-1.03-1.05-1.83-1.87-2.39-.82-.56-1.84-.84-3.05-.84-1.76,0-3.13.61-4.1,1.82-.97,1.22-1.46,2.95-1.46,5.2v33.78c0,2.22.49,3.94,1.46,5.15.97,1.22,2.34,1.82,4.1,1.82s3.21-.62,4.15-1.85,1.41-2.96,1.41-5.17v-4.06h10.12v4.06c-.03,3.62-.65,6.68-1.87,9.19-1.22,2.51-2.99,4.43-5.31,5.77s-5.16,2.01-8.5,2.01Z"/>
  <path class="cls-2" d="M610.03,42.71v-9.94h9.94v9.94h-9.94ZM610.03,99.42v-48h9.94v48h-9.94Z"/>
  <path class="cls-2" d="M642.15,99.42c-4.41,0-7.93-1.3-10.58-3.9-2.64-2.6-3.98-6.07-4.01-10.42v-.55l9.53-.09v.55c0,1.67.46,3,1.37,3.99.91.99,2.14,1.48,3.69,1.48s2.77-.46,3.67-1.39c.9-.93,1.34-2.17,1.34-3.71,0-1.37-.37-2.44-1.12-3.21-.75-.77-1.72-1.42-2.92-1.94-1.2-.52-2.51-1.05-3.94-1.6-1.28-.52-2.56-1.11-3.85-1.78-1.29-.67-2.48-1.53-3.55-2.58-1.08-1.05-1.95-2.35-2.62-3.9-.67-1.55-1-3.48-1-5.79,0-4.25,1.24-7.65,3.71-10.19,2.48-2.54,5.77-3.81,9.87-3.81s7.51,1.22,9.96,3.65c2.45,2.43,3.68,5.73,3.71,9.89v.55l-9.53.09v-.68c0-1.37-.36-2.47-1.07-3.3-.71-.84-1.72-1.25-3.03-1.25-1.22,0-2.2.45-2.94,1.34-.75.9-1.12,2.1-1.12,3.62,0,1.34.34,2.4,1.03,3.19.68.79,1.57,1.44,2.67,1.94s2.28.96,3.56,1.39c1.37.46,2.73.98,4.1,1.57,1.37.59,2.64,1.39,3.81,2.39s2.1,2.33,2.8,3.99c.7,1.66,1.05,3.78,1.05,6.36,0,4.32-1.32,7.74-3.97,10.28-2.64,2.54-6.18,3.81-10.62,3.81Z"/>
  <path class="cls-2" d="M526.58,99.45c-4.65,0-8.25-1.19-10.8-3.56-2.55-2.37-3.83-5.71-3.83-10.03v-20.97c0-4.53,1.27-8.04,3.81-10.53,2.54-2.49,6.15-3.74,10.83-3.74s8.25,1.25,10.8,3.76c2.55,2.51,3.84,6.04,3.88,10.6v2.78l-9.85.05v-2.32c0-1.85-.41-3.27-1.23-4.26-.82-.99-1.98-1.48-3.46-1.48s-2.65.49-3.49,1.48c-.84.99-1.25,2.36-1.25,4.13v20.06c0,1.55.42,2.76,1.25,3.62.83.87,2,1.3,3.49,1.3s2.64-.45,3.46-1.34c.82-.9,1.23-2.17,1.23-3.81v-2.19l9.94.09v2.6c-.03,4.35-1.33,7.73-3.9,10.14-2.57,2.42-6.19,3.62-10.87,3.62Z"/>
  <path class="cls-2" d="M674.25,60.72h6.52v-9.3h-6.52v-13.77h-9.94v13.77h-4.51v9.3h4.51v26.39c0,4.04.93,7.14,2.78,9.3,1.85,2.16,4.83,3.24,8.93,3.24h4.74v-10.35h-3.37c-1,0-1.78-.33-2.33-1s-.82-1.6-.82-2.78v-24.8Z"/>
  <path class="cls-2" d="M453.19,59.99c.7,0,1.63-.01,2.55.55.52.32.83.7.99.9.77.97,1.15,2.45,1.15,4.42v34.01h10.03v-38.61c0-2.42-1.18-5.31-2.34-6.59-1.32-1.45-3.98-3.81-10.34-3.62h-6.74v-18.14h-10.03v66.96h10.03v-39.89c1.73,0,3.24,0,4.69,0Z"/>
  <path class="cls-2" d="M232.26,99.88v-10.13h-12.02c-1.49-.06-2.66-.55-3.49-1.47-.88-.99-1.32-2.39-1.32-4.22v-4.83h19.24v-12.95c0-4.86-1.26-8.62-3.78-11.26-2.52-2.64-6.09-3.97-10.71-3.97s-8.05,1.39-10.58,4.17c-2.52,2.78-3.78,6.72-3.78,11.83v17.69c0,4.83,1.29,8.56,3.88,11.19,2.58,2.63,6.2,4,10.85,3.92.14,0,11.52.03,11.72.02M215.43,66.56c0-2.1.42-3.72,1.25-4.85.84-1.14,2-1.71,3.49-1.71s2.75.54,3.6,1.62c.85,1.08,1.28,2.59,1.28,4.54v5.33h-9.62v-4.92Z"/>
  <path class="cls-2" d="M268.7,99.88v-10.13h-12.02c-1.49-.06-2.66-.55-3.49-1.47-.88-.99-1.32-2.39-1.32-4.22v-4.83h19.24v-12.95c0-4.86-1.26-8.62-3.78-11.26-2.52-2.64-6.09-3.97-10.71-3.97s-8.05,1.39-10.58,4.17c-2.52,2.78-3.78,6.72-3.78,11.83v17.69c0,4.83,1.29,8.56,3.88,11.19,2.58,2.63,6.2,4,10.85,3.92.14,0,11.52.03,11.72.02M251.87,66.56c0-2.1.42-3.72,1.25-4.85.84-1.14,2-1.71,3.49-1.71s2.75.54,3.6,1.62c.85,1.08,1.28,2.59,1.28,4.54v5.33h-9.62v-4.92Z"/>
  <path class="cls-2" d="M501.95,99.42v-10.13h-12.02c-1.49-.06-2.66-.55-3.49-1.47-.88-.99-1.32-2.39-1.32-4.22v-4.83h19.24v-12.95c0-4.86-1.26-8.62-3.78-11.26-2.52-2.64-6.09-3.97-10.71-3.97s-8.05,1.39-10.58,4.17c-2.52,2.78-3.78,6.72-3.78,11.83v17.69c0,4.83,1.29,8.56,3.88,11.19,2.58,2.63,6.2,4,10.85,3.92.14,0,11.52.03,11.72.02M485.12,66.1c0-2.1.42-3.72,1.25-4.85.84-1.14,2-1.71,3.49-1.71s2.75.54,3.6,1.62c.85,1.08,1.28,2.59,1.28,4.54v5.33h-9.62v-4.92Z"/>
  <polygon class="cls-2" points="302.45 99.88 313.11 99.88 299.44 70.51 311.25 51.88 300.99 51.88 288.64 73.05 288.64 32.91 278.7 32.91 278.7 99.88 288.64 99.88 288.64 93.76 288.64 87.55 293.92 79.22 302.45 99.88"/>
  <path class="cls-2" d="M597.2,32.46v52.83c0,1.22.28,2.15.84,2.8.56.65,1.36.98,2.39.98h2.01v10.35h-3.92c-3.59,0-6.37-1.09-8.36-3.28-1.99-2.19-2.99-5.27-2.99-9.25v-54.43h10.03Z"/>
  <polygon class="cls-2" points="572.69 99.42 583.36 99.42 569.69 70.05 581.49 51.42 571.24 51.42 558.88 72.59 558.88 32.46 548.95 32.46 548.95 99.42 558.88 99.42 558.88 93.3 558.88 87.1 564.17 78.76 572.69 99.42"/>
</svg>